<?xml version="1.0" standalone="no"?>
<!DOCTYPE svg PUBLIC "-//W3C//DTD SVG 20010904//EN"
 "http://www.w3.org/TR/2001/REC-SVG-20010904/DTD/svg10.dtd">
<svg version="1.0" xmlns="http://www.w3.org/2000/svg"
 width="2050.000000pt" height="2050.000000pt" viewBox="0 0 2050.000000 2050.000000"
 preserveAspectRatio="xMidYMid meet">
<metadata>
Created by potrace 1.16, written by Peter Selinger 2001-2019
</metadata>
<g transform="translate(0.000000,2050.000000) scale(0.100000,-0.100000)"
fill="#000000" stroke="none">
<path d="M9893 20313 c-96 -2 -143 -7 -143 -15 0 -7 -28 -9 -95 -4 -58 4 -95
4 -95 -2 0 -5 -65 -13 -145 -17 -80 -4 -145 -10 -145 -14 0 -4 -71 -13 -157
-20 -87 -7 -160 -16 -163 -21 -3 -4 -49 -11 -102 -15 -54 -4 -98 -11 -98 -15
0 -4 -54 -13 -120 -20 -66 -8 -120 -17 -120 -20 0 -4 -45 -13 -100 -20 -55 -7
-100 -17 -100 -21 0 -4 -29 -11 -65 -14 -36 -4 -65 -11 -65 -15 0 -4 -40 -13
-90 -20 -49 -7 -90 -16 -90 -20 0 -4 -25 -11 -55 -15 -30 -3 -55 -10 -55 -14
0 -4 -36 -14 -80 -21 -44 -7 -80 -17 -80 -21 0 -4 -20 -10 -45 -13 -25 -4 -45
-10 -45 -14 0 -4 -30 -13 -67 -20 -37 -7 -70 -17 -73 -21 -3 -5 -26 -11 -52
-15 -27 -4 -48 -11 -48 -15 0 -5 -27 -14 -60 -21 -33 -7 -60 -16 -60 -20 0 -3
-29 -12 -65 -19 -36 -7 -65 -17 -65 -21 0 -5 -18 -11 -40 -15 -22 -4 -40 -10
-40 -14 0 -4 -25 -14 -55 -21 -30 -7 -55 -16 -55 -20 0 -4 -20 -11 -45 -14
-25 -4 -45 -11 -45 -16 0 -4 -22 -13 -50 -20 -27 -7 -50 -16 -50 -20 0 -4 -16
-11 -35 -14 -19 -4 -35 -10 -35 -14 0 -7 -70 -32 -91 -32 -6 0 -17 -7 -25 -15
-9 -8 -26 -15 -40 -15 -13 0 -24 -5 -24 -10 0 -6 -20 -15 -45 -22 -25 -7 -45
-15 -45 -19 0 -4 -13 -10 -30 -14 -16 -4 -30 -10 -30 -15 0 -4 -22 -13 -50
-20 -27 -7 -50 -16 -50 -21 0 -4 -18 -14 -40 -20 -22 -7 -40 -16 -40 -20 0 -4
-13 -10 -30 -14 -16 -4 -30 -10 -30 -14 0 -4 -20 -12 -45 -19 -25 -7 -45 -16
-45 -21 0 -5 -13 -12 -30 -16 -16 -4 -30 -10 -30 -14 0 -4 -18 -14 -40 -21
-22 -7 -40 -17 -40 -21 0 -4 -13 -10 -29 -14 -16 -3 -32 -12 -34 -20 -3 -7
-19 -16 -36 -20 -17 -4 -31 -10 -31 -15 0 -4 -11 -11 -25 -14 -14 -4 -25 -10
-25 -15 0 -5 -13 -12 -30 -16 -16 -4 -33 -12 -37 -19 -5 -7 -26 -19 -48 -26
-22 -7 -45 -18 -52 -24 -29 -26 -40 -32 -73 -46 -19 -8 -40 -19 -47 -25 -30
-25 -40 -32 -70 -44 -18 -7 -33 -17 -33 -22 0 -5 -7 -9 -15 -9 -9 0 -18 -6
-21 -14 -3 -8 -19 -18 -36 -21 -16 -4 -32 -13 -35 -21 -3 -8 -11 -14 -18 -14
-6 0 -22 -9 -35 -20 -13 -11 -28 -20 -35 -20 -7 0 -23 -9 -36 -20 -38 -31 -42
-34 -74 -50 -16 -8 -33 -20 -38 -27 -4 -6 -21 -14 -37 -18 -17 -4 -30 -11 -30
-16 0 -5 -8 -13 -17 -16 -9 -4 -24 -14 -34 -22 -32 -31 -63 -51 -76 -51 -7 0
-13 -5 -13 -10 0 -6 -11 -15 -25 -20 -14 -5 -25 -14 -25 -20 0 -5 -6 -10 -13
-10 -7 0 -20 -9 -30 -20 -9 -11 -23 -20 -32 -20 -8 0 -19 -9 -25 -20 -6 -11
-17 -20 -25 -20 -8 0 -15 -5 -15 -11 0 -5 -13 -15 -29 -20 -16 -6 -32 -17 -35
-25 -3 -8 -11 -14 -18 -14 -8 0 -21 -8 -29 -17 -9 -10 -27 -26 -40 -35 -47
-34 -72 -53 -87 -70 -9 -10 -21 -18 -27 -18 -6 0 -22 -13 -35 -30 -14 -16 -30
-29 -36 -30 -7 0 -22 -11 -35 -25 -13 -13 -28 -25 -32 -25 -5 0 -23 -15 -40
-34 -18 -18 -41 -36 -53 -40 -11 -3 -27 -17 -34 -31 -7 -14 -22 -28 -33 -31
-12 -4 -42 -28 -68 -55 -26 -27 -51 -49 -54 -49 -4 0 -33 -27 -66 -60 -32 -33
-65 -60 -72 -60 -8 0 -20 -11 -27 -25 -7 -14 -17 -25 -20 -25 -7 0 -198 -188
-242 -237 -9 -10 -27 -28 -40 -41 -12 -12 -27 -27 -33 -32 -5 -6 -61 -60 -122
-121 -62 -61 -113 -115 -113 -121 0 -5 -29 -38 -65 -73 -36 -35 -65 -67 -65
-71 0 -4 -20 -27 -45 -51 -25 -23 -45 -48 -45 -56 0 -7 -11 -19 -24 -26 -13
-7 -30 -25 -37 -39 -8 -15 -27 -41 -44 -58 -16 -18 -38 -42 -47 -55 -38 -53
-54 -72 -75 -92 -13 -11 -23 -25 -23 -31 0 -6 -13 -22 -30 -36 -16 -14 -30
-30 -30 -37 0 -7 -9 -21 -20 -30 -11 -10 -20 -21 -20 -25 0 -8 -9 -19 -60 -76
-17 -18 -30 -36 -30 -40 0 -5 -8 -17 -18 -28 -10 -10 -24 -33 -32 -51 -8 -18
-24 -37 -36 -44 -13 -6 -25 -21 -28 -33 -3 -12 -15 -33 -26 -46 -11 -13 -20
-28 -20 -34 0 -6 -9 -17 -20 -24 -11 -7 -20 -17 -20 -23 0 -5 -5 -15 -10 -22
-41 -48 -50 -62 -50 -74 0 -7 -7 -16 -15 -19 -8 -4 -15 -13 -15 -20 0 -8 -6
-17 -13 -20 -8 -3 -20 -20 -27 -39 -8 -19 -17 -35 -20 -35 -3 0 -12 -16 -20
-35 -7 -19 -19 -36 -27 -39 -7 -3 -13 -12 -13 -21 0 -8 -3 -15 -8 -15 -4 0
-14 -15 -21 -32 -8 -18 -20 -38 -25 -45 -26 -30 -33 -40 -46 -70 -8 -18 -18
-33 -22 -33 -3 0 -9 -13 -13 -29 -3 -16 -12 -32 -20 -34 -7 -3 -16 -19 -20
-35 -3 -17 -13 -33 -21 -36 -8 -3 -14 -12 -14 -21 0 -8 -4 -15 -9 -15 -5 0
-12 -13 -16 -29 -3 -16 -15 -39 -26 -52 -10 -12 -19 -28 -19 -36 0 -7 -4 -13
-10 -13 -5 0 -15 -18 -21 -40 -7 -22 -15 -40 -19 -40 -3 0 -12 -16 -19 -35 -7
-19 -16 -35 -21 -35 -4 0 -11 -11 -14 -25 -4 -14 -10 -25 -15 -25 -5 0 -14
-20 -21 -45 -7 -25 -17 -45 -21 -45 -5 0 -9 -6 -9 -14 0 -8 -6 -21 -13 -28 -8
-7 -20 -31 -27 -53 -7 -22 -19 -46 -27 -53 -7 -7 -13 -20 -13 -28 0 -8 -4 -14
-8 -14 -5 0 -14 -22 -21 -50 -7 -27 -16 -50 -21 -50 -4 0 -11 -12 -14 -26 -4
-15 -14 -33 -21 -41 -8 -8 -15 -25 -15 -38 0 -13 -7 -30 -15 -38 -8 -8 -19
-35 -26 -61 -6 -25 -15 -46 -20 -46 -4 0 -11 -16 -15 -35 -3 -19 -10 -35 -14
-35 -5 0 -14 -22 -21 -50 -7 -27 -16 -50 -20 -50 -4 0 -11 -14 -14 -32 -4 -17
-14 -38 -21 -46 -8 -7 -14 -24 -14 -37 0 -13 -6 -30 -14 -37 -7 -8 -17 -33
-21 -56 -4 -23 -11 -42 -15 -42 -5 0 -14 -25 -21 -55 -7 -30 -16 -55 -20 -55
-4 0 -10 -18 -14 -40 -4 -22 -11 -40 -15 -40 -5 0 -14 -25 -21 -55 -7 -30 -15
-55 -19 -55 -4 0 -11 -20 -14 -45 -4 -25 -11 -45 -16 -45 -4 0 -13 -30 -20
-67 -6 -37 -15 -70 -20 -73 -5 -3 -15 -36 -22 -73 -7 -37 -16 -67 -20 -67 -4
0 -10 -20 -14 -45 -3 -25 -10 -45 -14 -45 -4 0 -13 -36 -21 -80 -7 -44 -16
-80 -20 -80 -4 0 -11 -20 -15 -45 -3 -25 -10 -45 -14 -45 -4 0 -13 -43 -20
-95 -7 -52 -16 -95 -21 -95 -4 0 -11 -27 -15 -60 -4 -33 -10 -60 -14 -60 -4 0
-13 -44 -20 -97 -7 -54 -17 -100 -21 -103 -5 -3 -11 -38 -15 -78 -4 -40 -11
-72 -17 -72 -5 0 -6 -15 -3 -35 4 -20 3 -35 -3 -35 -5 0 -13 -40 -17 -90 -3
-49 -11 -90 -17 -90 -6 0 -7 -16 -3 -40 3 -22 2 -40 -3 -40 -5 0 -12 -47 -16
-105 -4 -58 -11 -105 -15 -105 -5 0 -11 -54 -15 -120 -5 -69 -12 -120 -18
-120 -6 0 -7 -26 -3 -71 5 -45 4 -74 -2 -78 -6 -4 -13 -94 -17 -211 -4 -113
-12 -210 -16 -216 -6 -7 -8 -214 -6 -480 4 -475 22 -884 39 -895 6 -4 7 -36 2
-78 -4 -45 -3 -71 3 -71 6 0 13 -51 18 -120 4 -66 10 -120 15 -120 4 0 11 -47
15 -105 4 -58 10 -105 15 -105 4 0 5 -20 2 -45 -3 -27 -1 -45 6 -45 5 0 13
-38 17 -85 4 -48 11 -85 17 -85 7 0 8 -14 5 -35 -3 -19 -2 -35 2 -35 5 0 12
-34 16 -75 4 -41 10 -75 15 -75 4 0 11 -32 15 -70 4 -39 11 -70 17 -70 5 0 7
-13 3 -30 -4 -17 -2 -30 3 -30 5 0 12 -27 16 -60 4 -33 11 -60 16 -60 4 0 12
-29 15 -65 4 -36 11 -65 15 -65 4 0 5 -11 2 -25 -2 -14 0 -25 6 -25 5 0 12
-22 16 -50 4 -27 11 -50 15 -50 5 0 12 -25 16 -55 3 -30 11 -55 16 -55 6 0 7
-9 4 -20 -3 -11 -2 -20 3 -20 5 0 12 -22 16 -50 4 -27 10 -50 14 -50 4 0 13
-30 20 -67 7 -37 17 -70 22 -73 5 -3 14 -36 20 -73 7 -37 16 -67 20 -67 5 0
11 -18 15 -40 4 -22 10 -40 14 -40 4 0 13 -27 19 -60 7 -33 17 -60 22 -60 4 0
11 -18 15 -40 4 -22 10 -40 14 -40 4 0 13 -25 20 -55 7 -30 16 -55 21 -55 4 0
11 -18 15 -40 4 -22 10 -40 15 -40 4 0 13 -22 20 -50 7 -28 16 -50 20 -50 4 0
11 -16 14 -35 4 -19 10 -35 15 -35 4 0 13 -22 20 -50 7 -27 16 -50 21 -50 4 0
11 -16 14 -35 4 -19 10 -35 15 -35 4 0 13 -23 20 -50 7 -28 17 -50 22 -50 5 0
14 -20 20 -45 6 -25 15 -45 19 -45 5 0 11 -14 15 -30 4 -17 10 -30 14 -30 9 0
31 -60 31 -83 0 -9 4 -17 10 -17 5 0 12 -11 16 -25 3 -14 9 -25 14 -25 4 0 12
-18 19 -40 6 -22 16 -40 21 -40 4 0 11 -14 15 -30 4 -17 10 -30 14 -30 4 0 13
-18 20 -40 6 -22 16 -40 21 -40 4 0 11 -14 15 -30 4 -17 10 -30 14 -30 4 0 13
-16 21 -35 8 -19 17 -35 20 -35 4 0 13 -18 20 -40 7 -22 17 -40 22 -40 4 0 8
-7 8 -15 0 -9 6 -18 14 -21 8 -3 19 -25 26 -50 7 -24 17 -44 21 -44 5 0 9 -7
9 -15 0 -7 8 -18 18 -24 13 -8 17 -23 17 -76 0 -40 -5 -69 -12 -73 -7 -4 -15
-27 -19 -50 -4 -23 -10 -42 -14 -42 -4 0 -13 -27 -20 -60 -7 -33 -16 -60 -21
-60 -4 0 -11 -20 -15 -45 -3 -25 -10 -45 -14 -45 -4 0 -13 -27 -20 -60 -7 -33
-16 -60 -20 -60 -4 0 -14 -29 -21 -65 -7 -36 -16 -65 -20 -65 -4 0 -10 -18
-14 -40 -4 -22 -10 -40 -15 -40 -4 0 -13 -27 -20 -60 -7 -33 -16 -60 -20 -60
-4 0 -11 -20 -14 -45 -4 -25 -11 -45 -15 -45 -5 0 -14 -27 -21 -60 -7 -33 -16
-60 -20 -60 -4 0 -11 -20 -14 -45 -4 -25 -11 -45 -15 -45 -4 0 -14 -25 -21
-55 -7 -30 -17 -55 -21 -55 -4 0 -10 -18 -14 -40 -4 -22 -10 -40 -15 -40 -4 0
-13 -29 -20 -65 -7 -36 -16 -65 -20 -65 -4 0 -13 -27 -20 -60 -7 -33 -16 -60
-21 -60 -4 0 -11 -20 -15 -45 -3 -25 -10 -45 -14 -45 -4 0 -13 -27 -20 -60 -7
-33 -16 -60 -20 -60 -5 0 -11 -18 -15 -40 -4 -22 -10 -40 -14 -40 -4 0 -13
-29 -20 -65 -7 -36 -17 -65 -21 -65 -5 0 -11 -18 -15 -40 -4 -22 -10 -40 -14
-40 -4 0 -13 -29 -20 -65 -7 -36 -17 -65 -21 -65 -5 0 -11 -18 -15 -40 -4 -22
-10 -40 -15 -40 -4 0 -13 -29 -20 -65 -7 -36 -16 -65 -20 -65 -5 0 -11 -18
-15 -40 -4 -22 -10 -40 -15 -40 -4 0 -14 -29 -21 -65 -7 -36 -16 -65 -19 -65
-4 0 -12 -25 -19 -55 -7 -30 -16 -55 -21 -55 -4 0 -11 -18 -15 -40 -4 -22 -10
-40 -15 -40 -4 0 -14 -29 -21 -65 -7 -36 -16 -65 -20 -65 -4 0 -10 -18 -14
-40 -4 -22 -10 -40 -15 -40 -4 0 -14 -29 -21 -65 -7 -36 -16 -65 -20 -65 -4 0
-10 -18 -14 -40 -4 -22 -10 -40 -15 -40 -4 0 -13 -27 -20 -60 -7 -33 -16 -60
-20 -60 -4 0 -11 -20 -14 -45 -4 -25 -11 -45 -15 -45 -5 0 -14 -27 -21 -60 -7
-33 -16 -60 -20 -60 -4 0 -13 -29 -20 -65 -7 -36 -16 -65 -20 -65 -5 0 -11
-18 -15 -40 -4 -22 -10 -40 -15 -40 -4 0 -13 -29 -20 -65 -7 -36 -16 -65 -20
-65 -5 0 -11 -18 -15 -40 -4 -22 -10 -40 -15 -40 -4 0 -14 -29 -21 -65 -7 -36
-16 -65 -20 -65 -4 0 -10 -18 -14 -40 -4 -22 -10 -40 -14 -40 -4 0 -13 -25
-20 -55 -7 -30 -16 -55 -21 -55 -4 0 -11 -18 -15 -40 -4 -22 -10 -40 -14 -40
-4 0 -13 -29 -20 -65 -7 -36 -17 -65 -21 -65 -4 0 -13 -27 -20 -60 -7 -33 -16
-60 -20 -60 -4 0 -10 -19 -14 -42 -4 -23 -11 -45 -16 -48 -4 -3 -14 -34 -21
-70 -7 -36 -18 -68 -23 -72 -15 -10 -14 -317 0 -326 6 -4 14 -19 17 -33 5 -18
16 -29 34 -34 15 -3 31 -11 34 -17 9 -14 309 -14 318 0 3 5 25 13 49 17 23 4
42 10 42 15 0 4 32 14 70 21 39 7 70 16 70 20 0 4 20 11 45 15 25 3 45 10 45
14 0 4 27 13 60 20 33 7 60 16 60 20 0 5 18 11 40 15 22 4 40 10 40 14 0 3 30
12 67 19 37 7 70 17 73 21 3 5 24 12 48 16 23 4 42 10 42 15 0 4 27 13 60 20
33 7 60 16 60 19 0 4 30 12 67 19 37 7 70 17 73 22 3 5 25 12 48 16 23 4 42
10 42 14 0 4 27 13 60 20 33 7 60 16 60 20 0 4 23 10 50 14 28 4 50 10 50 15
0 5 27 14 60 21 33 7 60 16 60 21 0 4 20 11 45 15 25 3 45 10 45 14 0 5 32 14
70 21 39 7 70 16 70 20 0 4 18 10 40 14 22 4 40 10 40 15 0 4 27 13 60 20 33
7 60 16 60 20 0 5 23 11 50 15 28 4 50 10 50 15 0 4 29 13 65 20 36 7 65 16
65 20 0 4 27 13 60 20 33 7 60 16 60 21 0 4 20 11 45 15 25 3 45 10 45 14 0 4
32 13 70 20 39 7 70 17 70 21 0 4 18 10 40 14 22 4 40 10 40 15 0 4 27 13 60
20 33 7 60 16 60 20 0 4 23 10 50 14 27 4 50 11 50 15 0 5 29 14 65 21 36 7
65 16 65 20 0 5 18 11 40 15 22 4 40 10 40 15 0 4 32 14 70 20 39 6 70 15 70
20 0 4 27 13 60 20 33 7 60 16 60 20 0 4 20 11 45 14 25 4 45 11 45 16 0 4 32
14 70 20 39 6 70 16 70 20 0 5 18 11 40 15 22 4 40 10 40 15 0 4 29 14 65 21
36 7 65 16 65 20 0 4 20 11 45 15 25 3 45 9 45 13 0 4 29 13 65 20 36 7 65 17
65 21 0 5 18 11 40 15 22 4 40 10 40 15 0 4 32 14 70 21 39 7 70 16 70 20 0 4
20 11 45 15 25 3 45 10 45 14 0 4 27 13 60 20 33 7 60 16 60 20 0 4 29 14 65
21 36 7 65 16 65 20 0 4 20 10 45 13 25 4 45 11 45 15 0 4 29 13 65 20 36 7
65 17 65 21 0 5 18 11 40 15 22 4 40 10 40 15 0 4 32 14 70 20 39 6 70 16 70
20 0 5 18 11 40 15 22 4 40 11 40 16 0 5 29 9 65 9 37 0 65 -4 65 -10 0 -5 7
-10 15 -10 7 0 18 -6 22 -14 4 -7 26 -19 48 -26 22 -7 46 -19 53 -27 7 -7 20
-13 28 -13 8 0 14 -4 14 -8 0 -5 18 -14 40 -21 22 -6 40 -16 40 -21 0 -5 16
-12 35 -16 19 -3 35 -10 35 -14 0 -4 20 -13 45 -20 25 -7 45 -16 45 -20 0 -4
18 -13 40 -20 22 -7 40 -16 40 -20 0 -4 16 -11 35 -14 19 -4 35 -11 35 -16 0
-4 23 -14 50 -21 28 -7 50 -16 50 -21 0 -4 6 -8 14 -8 8 0 21 -6 28 -13 7 -8
26 -17 41 -20 15 -4 39 -10 54 -14 15 -3 34 -12 41 -20 7 -7 22 -13 33 -13 10
0 19 -4 19 -9 0 -5 23 -14 50 -21 28 -7 50 -16 50 -20 0 -4 16 -11 35 -14 19
-4 35 -11 35 -15 0 -5 29 -14 65 -21 36 -7 65 -16 65 -21 0 -4 16 -11 35 -15
19 -3 35 -10 35 -14 0 -4 27 -13 60 -20 33 -7 60 -16 60 -20 0 -4 29 -13 65
-20 36 -7 65 -16 65 -20 0 -5 18 -11 40 -15 22 -4 40 -10 40 -15 0 -4 32 -14
70 -20 39 -6 70 -16 70 -21 0 -4 23 -11 50 -15 28 -4 50 -10 50 -15 0 -4 34
-13 75 -20 41 -7 75 -16 75 -21 0 -4 23 -10 50 -14 28 -4 50 -10 50 -14 0 -4
38 -14 85 -21 47 -7 85 -16 85 -20 0 -4 27 -10 60 -14 33 -4 60 -12 60 -17 0
-6 15 -8 35 -6 19 2 35 1 35 -3 0 -4 28 -10 63 -14 34 -4 64 -11 67 -16 3 -4
54 -14 113 -21 59 -7 107 -15 107 -19 0 -4 34 -10 75 -14 41 -4 75 -10 75 -14
0 -7 209 -31 262 -31 14 0 28 -4 30 -9 2 -6 54 -13 116 -17 61 -4 112 -11 112
-17 0 -6 25 -7 66 -2 42 4 69 3 73 -3 3 -6 80 -13 171 -17 102 -5 168 -12 172
-19 10 -16 1316 -16 1326 0 4 7 70 14 172 18 91 4 167 12 169 17 2 6 30 7 72
3 45 -4 69 -3 69 4 0 6 47 13 115 17 63 4 115 11 115 15 0 4 61 13 135 20 74
7 135 16 135 20 0 4 38 11 85 15 47 4 85 10 85 15 0 4 50 13 110 20 61 7 110
16 110 20 0 4 45 13 100 20 55 7 100 17 100 21 0 4 25 11 55 14 30 4 55 11 55
15 0 4 38 13 85 20 47 7 85 17 85 21 0 4 25 11 55 14 30 4 55 11 55 15 0 4 34
13 75 20 41 7 75 16 75 21 0 4 21 11 48 15 26 4 49 10 52 15 3 4 36 14 73 21
37 7 67 16 67 19 0 4 18 10 40 14 22 4 40 10 40 15 0 4 29 13 65 20 36 7 65
16 65 20 0 4 25 12 55 19 30 7 55 16 55 21 0 4 18 11 40 15 22 4 40 10 40 14
0 4 25 14 55 21 30 7 55 17 55 22 0 4 11 8 24 8 14 0 31 6 38 14 8 7 37 19 66
26 29 8 52 17 52 21 0 5 16 11 35 15 19 3 35 10 35 14 0 4 23 13 50 20 28 7
50 16 50 21 0 4 16 11 35 15 19 3 35 10 35 14 0 5 23 14 50 21 28 7 50 16 50
20 0 4 11 10 25 13 14 4 25 10 25 15 0 5 23 15 50 22 28 7 50 16 50 20 0 3 20
12 45 19 25 7 45 16 45 21 0 5 11 11 25 15 14 3 25 9 25 14 0 4 18 12 40 19
22 6 40 16 40 21 0 4 14 11 30 15 17 4 30 10 30 14 0 4 18 13 40 20 22 6 40
16 40 21 0 4 14 11 30 15 17 4 30 10 30 15 0 5 13 11 29 15 16 3 40 15 53 25
13 11 28 24 34 28 5 5 28 15 50 22 21 7 42 19 47 26 4 7 21 15 37 19 17 4 30
11 30 16 0 5 6 9 13 9 8 0 24 9 37 20 13 11 28 20 35 20 7 0 23 9 36 20 13 11
29 23 34 28 6 4 25 14 43 21 17 7 32 17 32 21 0 4 11 11 25 14 14 4 25 10 25
15 0 5 15 15 33 22 17 7 37 18 44 24 31 26 40 32 71 45 17 8 32 18 32 21 0 4
15 12 33 20 17 7 36 19 40 26 4 7 15 13 22 13 8 0 15 5 15 10 0 6 11 15 25 20
14 5 25 14 25 19 0 5 11 12 25 15 14 4 25 11 25 16 0 6 11 15 25 20 14 5 25
14 25 20 0 5 7 10 15 10 9 0 18 6 21 14 3 8 16 17 30 20 13 4 37 20 54 36 17
17 34 30 38 30 7 0 53 36 83 65 9 8 20 15 25 15 5 0 17 9 27 20 9 11 23 20 32
20 8 0 19 9 25 20 6 11 15 20 21 20 5 0 19 9 31 20 12 11 27 20 33 20 6 0 18
11 25 25 7 13 23 28 34 31 12 4 33 20 47 35 14 16 30 29 36 29 5 0 19 11 31
25 12 14 27 25 32 25 6 0 25 16 43 35 17 19 36 35 41 35 4 0 26 18 48 40 22
22 46 40 52 40 7 0 19 11 26 25 7 14 17 25 21 25 4 0 17 11 30 25 13 13 27 25
32 25 4 0 43 36 86 80 44 44 83 80 87 80 4 0 89 82 189 183 101 100 191 189
201 198 11 8 28 28 39 44 11 16 52 61 91 100 40 40 75 82 79 94 3 11 10 21 14
21 11 0 91 80 91 91 0 5 16 24 35 42 19 17 35 36 35 41 0 4 18 26 40 48 22 22
40 45 40 52 1 6 14 22 30 36 17 13 30 29 30 35 0 6 13 22 30 35 16 14 29 30
30 36 0 6 11 20 25 32 14 12 25 28 25 35 0 6 9 18 20 25 11 7 20 19 20 27 0 8
4 15 8 15 5 0 15 12 23 27 8 15 26 41 41 57 47 53 54 62 61 79 3 9 10 17 15
17 5 0 15 14 22 30 7 17 16 30 21 30 5 0 9 7 9 15 0 8 9 19 20 25 11 6 20 17
20 24 0 7 9 24 20 37 31 38 34 42 50 73 8 17 27 43 43 58 15 16 27 35 27 42 0
7 9 23 20 36 11 13 20 26 20 30 0 4 9 17 20 30 11 13 20 29 20 37 0 7 5 13 10
13 6 0 15 11 20 25 5 14 14 25 19 25 5 0 12 13 16 30 4 16 11 30 16 30 5 0 14
11 19 25 5 14 14 25 19 25 5 0 12 13 16 29 3 16 12 32 20 34 7 3 16 19 20 36
4 17 11 31 16 31 5 0 9 7 9 15 0 9 6 18 14 21 8 3 18 19 21 35 4 16 12 32 19
36 7 5 19 25 25 46 7 20 17 37 22 37 5 0 9 6 9 13 0 8 9 24 19 36 11 13 23 36
26 52 4 16 10 29 15 29 4 0 11 11 14 25 4 14 10 25 15 25 5 0 15 16 21 35 6
19 15 35 20 35 5 0 11 13 15 30 4 16 10 30 14 30 4 0 13 18 20 40 6 22 16 40
21 40 4 0 11 13 15 30 4 16 10 30 14 30 4 0 14 18 21 40 7 22 17 40 21 40 4 0
10 13 14 30 4 16 10 30 15 30 4 0 13 23 20 50 7 28 16 50 21 50 4 0 14 18 20
40 7 22 15 40 19 40 4 0 11 16 14 35 4 19 10 35 14 35 9 0 32 59 32 79 0 7 7
19 15 27 8 9 15 26 15 40 0 13 5 24 10 24 6 0 15 20 22 45 7 25 16 45 20 45 4
0 10 16 14 35 3 19 10 35 14 35 5 0 14 25 21 55 7 30 16 55 20 55 5 0 11 16
15 35 3 19 10 35 14 35 4 0 11 15 14 32 16 78 19 88 26 88 4 0 13 27 20 60 7
33 16 60 20 60 5 0 11 18 15 40 4 22 10 40 14 40 4 0 13 29 20 65 7 36 17 65
21 65 5 0 11 18 15 40 4 22 10 40 15 40 4 0 14 32 20 70 6 39 15 70 20 70 4 0
10 23 14 50 4 28 10 50 14 50 5 0 14 34 21 75 7 41 16 75 20 75 5 0 12 25 16
55 3 30 10 55 14 55 5 0 14 43 22 95 7 52 16 95 20 95 4 0 13 40 20 90 6 50
15 90 19 90 5 0 11 32 15 70 4 39 10 70 14 70 4 0 14 52 21 115 7 63 16 115
20 115 4 0 11 38 15 85 4 48 11 85 17 85 7 0 9 18 5 49 -3 27 -2 51 3 53 5 2
12 49 16 106 4 56 10 102 15 102 4 0 10 59 14 130 4 73 12 130 17 130 6 0 7
27 3 71 -5 47 -4 74 3 78 7 4 14 101 18 269 4 144 11 262 16 262 4 0 8 135 8
300 0 165 -4 300 -8 300 -5 0 -12 118 -16 262 -4 168 -11 265 -18 269 -7 4 -8
31 -3 78 4 45 3 71 -3 71 -5 0 -13 58 -17 135 -4 74 -11 135 -15 135 -4 0 -11
47 -15 105 -4 58 -10 105 -15 105 -4 0 -5 20 -2 45 3 27 1 45 -6 45 -5 0 -13
38 -17 85 -4 47 -10 85 -14 85 -5 0 -14 54 -21 120 -8 66 -17 120 -21 120 -4
0 -10 32 -14 70 -4 39 -11 70 -15 70 -5 0 -14 41 -21 90 -6 50 -15 90 -18 90
-4 0 -13 41 -20 90 -8 50 -17 90 -22 90 -4 0 -11 25 -14 55 -4 30 -11 55 -15
55 -5 0 -14 34 -21 75 -6 41 -15 75 -20 75 -5 0 -11 23 -15 50 -4 28 -10 50
-14 50 -5 0 -14 32 -20 70 -6 39 -16 70 -20 70 -5 0 -11 18 -15 40 -4 22 -10
40 -15 40 -4 0 -13 29 -20 65 -7 36 -16 65 -20 65 -5 0 -11 18 -15 40 -4 22
-10 40 -15 40 -4 0 -13 29 -20 65 -7 36 -16 65 -20 65 -4 0 -13 25 -20 55 -7
30 -16 55 -20 55 -4 0 -11 16 -14 35 -4 19 -10 35 -15 35 -4 0 -13 25 -20 55
-7 30 -16 55 -21 55 -4 0 -11 16 -14 35 -4 19 -10 35 -15 35 -4 0 -13 23 -20
50 -7 28 -16 50 -21 50 -4 0 -10 14 -14 31 -3 16 -13 37 -21 45 -8 9 -15 26
-15 39 0 13 -7 30 -15 39 -8 8 -18 29 -21 45 -4 17 -10 31 -14 31 -4 0 -13 20
-20 45 -7 25 -17 45 -21 45 -5 0 -14 20 -21 45 -7 25 -15 45 -19 45 -4 0 -10
14 -14 30 -4 17 -10 30 -14 30 -4 0 -13 18 -20 40 -6 22 -16 40 -21 40 -4 0
-11 14 -15 30 -4 17 -10 30 -14 30 -4 0 -14 18 -21 40 -7 22 -17 40 -21 40 -4
0 -10 14 -14 30 -4 17 -10 30 -14 30 -4 0 -13 16 -20 35 -7 19 -17 35 -22 35
-5 0 -9 6 -9 14 0 8 -6 21 -13 28 -8 7 -20 31 -27 53 -7 22 -19 44 -26 48 -8
4 -14 15 -14 22 0 8 -4 15 -8 15 -5 0 -15 18 -22 40 -7 22 -16 40 -20 40 -4 0
-14 15 -21 33 -7 17 -18 37 -24 44 -5 7 -15 19 -22 27 -7 8 -15 26 -19 41 -4
15 -13 29 -20 32 -8 3 -14 12 -14 19 0 8 -6 17 -14 20 -8 3 -18 19 -21 36 -4
16 -13 32 -20 35 -8 2 -17 17 -20 33 -3 16 -13 31 -21 34 -8 3 -14 12 -14 19
0 8 -9 25 -20 38 -11 13 -23 29 -28 34 -4 6 -15 25 -22 43 -8 17 -18 32 -23
32 -4 0 -12 11 -17 25 -5 14 -14 25 -20 25 -5 0 -10 7 -10 15 0 9 -6 18 -14
21 -8 3 -17 16 -20 28 -3 12 -15 33 -26 46 -11 13 -20 29 -20 35 0 7 -7 15
-15 19 -8 3 -15 11 -15 18 0 8 -8 21 -17 30 -25 23 -38 41 -53 69 -7 13 -19
28 -26 32 -8 4 -14 12 -14 17 0 6 -9 19 -20 30 -11 11 -20 26 -20 33 0 8 -11
20 -25 27 -14 7 -25 19 -25 27 0 7 -9 22 -20 33 -11 11 -20 23 -20 28 0 4 -11
21 -25 37 -14 17 -33 40 -43 53 -9 13 -31 38 -48 56 -17 17 -34 41 -38 52 -3
12 -18 27 -31 34 -14 7 -25 20 -25 27 0 8 -18 31 -40 52 -22 21 -40 42 -40 47
0 5 -8 16 -17 25 -10 8 -27 28 -38 43 -11 15 -44 52 -72 81 -29 29 -53 56 -53
60 0 4 -34 40 -75 81 -41 41 -75 78 -75 83 0 11 -139 151 -150 151 -4 0 -12
11 -19 24 -7 13 -23 29 -36 36 -13 7 -28 22 -35 35 -7 13 -22 28 -35 35 -13 7
-28 22 -35 35 -7 13 -22 28 -35 35 -13 7 -28 22 -35 35 -7 13 -24 29 -38 36
-15 8 -61 49 -104 92 -42 42 -80 77 -84 77 -4 0 -32 25 -61 55 -29 30 -57 55
-61 55 -4 0 -15 8 -24 18 -28 29 -66 62 -73 62 -3 0 -21 15 -38 34 -18 18 -41
36 -53 40 -11 3 -27 17 -34 30 -7 14 -23 27 -36 30 -13 4 -28 15 -34 26 -6 11
-16 20 -22 20 -6 0 -24 14 -40 30 -15 17 -32 30 -36 30 -4 0 -15 9 -25 20 -9
11 -23 20 -32 20 -8 0 -19 9 -25 20 -6 11 -17 20 -25 20 -8 0 -15 4 -15 8 0 5
-12 15 -27 23 -29 15 -40 23 -89 67 -16 15 -43 34 -59 42 -17 8 -39 24 -50 35
-11 11 -33 27 -50 35 -16 8 -34 21 -38 27 -4 7 -15 13 -22 13 -8 0 -15 5 -15
10 0 6 -12 16 -27 23 -16 6 -32 17 -36 24 -4 7 -15 13 -22 13 -8 0 -15 5 -15
10 0 6 -11 15 -25 20 -14 5 -25 14 -25 19 0 5 -14 12 -31 16 -17 4 -33 13 -36
21 -3 8 -11 14 -19 14 -7 0 -17 6 -21 13 -4 7 -23 19 -40 26 -18 8 -33 17 -33
21 0 4 -11 11 -25 14 -14 4 -25 10 -25 15 0 5 -15 15 -32 22 -18 7 -38 18 -45
24 -30 25 -40 32 -70 44 -18 7 -33 17 -33 22 0 5 -11 11 -25 15 -14 3 -25 9
-25 13 0 4 -16 13 -35 21 -19 8 -35 17 -35 21 0 4 -13 10 -29 14 -16 3 -32 12
-34 20 -3 7 -19 16 -36 20 -17 4 -31 10 -31 15 0 4 -10 10 -23 14 -13 3 -34
15 -47 26 -13 11 -29 20 -37 20 -7 0 -13 4 -13 9 0 4 -20 14 -45 21 -25 7 -45
16 -45 21 0 5 -11 11 -25 15 -14 3 -25 10 -25 14 0 4 -20 13 -45 20 -25 7 -45
16 -45 21 0 5 -11 11 -25 15 -14 3 -25 9 -25 14 0 4 -18 12 -40 19 -22 6 -40
16 -40 21 0 4 -13 11 -30 15 -16 4 -30 10 -30 15 0 4 -22 13 -50 20 -27 7 -50
15 -50 19 0 4 -18 14 -40 21 -22 7 -40 16 -40 20 0 4 -16 11 -35 14 -19 4 -35
11 -35 15 0 5 -22 14 -50 21 -27 7 -50 16 -50 21 0 4 -16 11 -35 15 -19 3 -35
10 -35 14 0 4 -22 13 -50 20 -27 7 -50 16 -50 20 0 4 -16 11 -35 14 -19 4 -35
10 -35 14 0 8 -71 32 -95 32 -8 0 -15 4 -15 9 0 5 -16 12 -35 15 -19 4 -35 11
-35 15 0 5 -27 14 -60 21 -33 7 -60 16 -60 21 0 4 -16 11 -35 15 -19 3 -35 10
-35 14 0 4 -28 13 -62 20 -35 7 -65 17 -68 21 -3 5 -36 14 -73 21 -37 7 -67
16 -67 19 0 4 -18 10 -40 14 -22 4 -40 10 -40 15 0 4 -31 14 -70 20 -38 6 -70
15 -70 20 0 4 -22 11 -50 15 -27 4 -50 10 -50 15 0 4 -36 13 -80 20 -44 7 -80
16 -80 20 0 4 -25 11 -55 15 -30 3 -55 10 -55 14 0 4 -38 13 -85 20 -47 7 -85
17 -85 21 0 4 -31 11 -70 15 -38 4 -70 11 -70 15 0 4 -47 14 -105 20 -58 7
-105 16 -105 20 0 5 -54 14 -120 21 -66 7 -120 16 -120 20 0 4 -39 10 -87 14
-49 4 -90 11 -93 16 -3 4 -78 13 -168 20 -89 7 -162 16 -162 20 0 4 -63 10
-140 14 -77 4 -140 12 -140 17 0 6 -35 7 -91 2 -67 -5 -93 -4 -99 5 -5 10
-132 13 -526 15 -285 2 -583 1 -661 -1z m1067 -202 c272 -18 545 -46 785 -81
255 -37 339 -50 356 -55 9 -3 52 -12 95 -20 383 -71 806 -181 1199 -311 157
-52 506 -179 560 -204 11 -5 49 -21 85 -35 36 -14 74 -30 85 -35 11 -5 41 -18
68 -29 26 -12 68 -31 95 -42 26 -12 67 -30 92 -41 74 -33 507 -251 620 -313
624 -341 1225 -767 1790 -1269 173 -153 602 -583 751 -751 350 -397 574 -687
846 -1095 109 -163 288 -453 346 -560 16 -30 46 -82 65 -115 44 -76 266 -514
314 -620 20 -44 48 -107 63 -140 63 -138 184 -443 254 -635 41 -113 135 -401
154 -470 9 -30 23 -80 32 -110 52 -171 153 -583 183 -745 6 -27 21 -111 35
-185 51 -270 91 -569 127 -958 5 -57 15 -255 21 -439 11 -342 1 -870 -21
-1114 -54 -578 -114 -956 -234 -1469 -14 -61 -27 -110 -75 -292 -101 -377
-261 -837 -428 -1228 -809 -1895 -2208 -3484 -3988 -4529 -93 -55 -204 -118
-245 -141 -137 -74 -583 -295 -695 -344 -111 -48 -122 -53 -185 -80 -19 -8
-64 -26 -100 -41 -36 -14 -74 -30 -85 -35 -19 -9 -96 -38 -215 -82 -30 -11
-64 -24 -75 -29 -37 -15 -440 -147 -495 -162 -30 -9 -89 -25 -130 -37 -85 -25
-125 -36 -300 -79 -69 -17 -138 -35 -155 -40 -16 -5 -50 -12 -75 -16 -25 -3
-59 -11 -76 -16 -17 -5 -66 -16 -110 -24 -43 -8 -128 -24 -189 -35 -208 -39
-487 -79 -700 -100 -55 -6 -140 -15 -190 -20 -214 -24 -553 -32 -1005 -26
-256 3 -505 10 -555 16 -49 5 -144 14 -210 20 -66 5 -154 14 -195 20 -41 6
-127 18 -190 26 -195 26 -304 42 -320 48 -8 3 -55 12 -105 20 -125 21 -364 69
-425 86 -19 5 -75 19 -125 30 -93 22 -123 30 -390 105 -144 41 -520 163 -570
185 -11 5 -31 12 -45 15 -14 4 -38 13 -55 20 -38 16 -87 35 -205 81 -98 38
-268 109 -355 149 -246 113 -430 203 -597 293 l-136 73 -104 -34 c-56 -19
-170 -56 -253 -82 -82 -26 -195 -62 -250 -80 -55 -18 -154 -50 -220 -70 -66
-20 -129 -41 -140 -45 -11 -5 -87 -29 -170 -55 -82 -26 -188 -60 -235 -75 -47
-16 -134 -44 -195 -63 -134 -42 -439 -140 -555 -177 -221 -72 -346 -112 -470
-150 -74 -23 -144 -46 -155 -50 -11 -5 -81 -27 -155 -50 -74 -24 -173 -55
-220 -70 -47 -15 -173 -56 -280 -90 -107 -35 -233 -75 -280 -90 -47 -15 -146
-47 -220 -70 -74 -23 -180 -57 -235 -75 -55 -18 -181 -59 -280 -90 -99 -32
-218 -70 -265 -85 -47 -15 -173 -55 -280 -89 -107 -34 -202 -66 -210 -70 -9
-5 -31 -12 -50 -16 -19 -4 -40 -11 -46 -17 -7 -5 -21 -11 -33 -13 -18 -3 -21
0 -19 25 1 16 4 27 7 25 2 -3 19 37 36 87 18 51 35 100 38 108 3 8 11 35 19
60 28 89 359 1075 368 1095 5 11 79 229 164 485 86 256 243 726 351 1045 107
319 265 789 351 1045 85 256 159 474 163 485 5 11 21 58 36 105 14 47 30 94
35 105 17 38 160 473 160 485 0 6 -41 81 -90 165 -49 84 -90 156 -90 159 0 3
-14 29 -31 58 -80 134 -258 503 -375 771 -36 84 -69 161 -74 172 -29 66 -105
266 -160 420 -23 66 -46 129 -50 140 -5 11 -27 81 -50 155 -23 74 -48 153 -55
175 -8 22 -19 58 -24 80 -5 22 -19 74 -31 115 -44 156 -97 370 -134 550 -8 41
-20 95 -26 120 -5 25 -14 76 -20 114 -6 38 -13 73 -15 77 -9 13 -71 444 -85
589 -5 58 -15 139 -20 180 -10 76 -19 221 -41 658 -9 188 -10 299 0 500 21
460 32 657 37 675 3 9 12 79 19 155 42 413 142 960 246 1347 11 44 27 103 34
130 17 70 44 163 60 210 7 22 32 101 55 175 39 127 101 310 120 355 5 11 14
38 21 60 6 22 15 45 19 50 4 6 17 39 30 75 23 66 32 87 69 172 12 26 21 50 21
53 0 4 6 21 14 38 8 18 24 55 36 82 22 49 43 96 98 220 50 111 268 539 332
650 207 361 274 467 541 860 15 23 86 119 158 214 566 754 1213 1399 1961
1958 309 230 718 497 990 646 30 17 72 41 92 54 80 49 612 314 778 386 448
194 998 390 1325 472 28 7 86 23 130 34 117 32 273 68 410 95 44 9 94 21 110
26 17 5 53 12 80 15 28 4 67 11 87 16 67 17 461 75 643 94 262 29 320 33 545
45 124 7 227 14 230 17 9 8 715 -4 900 -16z"/>
<path d="M4350 15873 c-13 -16 -56 -64 -94 -108 -81 -92 -187 -221 -231 -280
-16 -22 -34 -45 -40 -51 -5 -6 -26 -32 -45 -58 -19 -26 -51 -69 -71 -95 -96
-125 -337 -488 -404 -606 -16 -27 -34 -57 -41 -65 -11 -13 -43 -72 -176 -315
-107 -196 -247 -495 -334 -710 -25 -60 -49 -119 -54 -130 -27 -57 -166 -453
-198 -565 -65 -224 -86 -299 -107 -380 -128 -500 -200 -961 -236 -1515 -18
-268 -6 -971 20 -1225 55 -537 156 -1076 275 -1467 72 -238 93 -304 132 -417
24 -70 56 -158 70 -195 54 -140 98 -248 115 -288 11 -23 19 -44 19 -46 0 -3
18 -45 41 -94 22 -48 47 -104 56 -123 71 -159 221 -443 347 -660 89 -154 257
-421 276 -440 3 -3 19 -25 35 -50 17 -25 35 -51 42 -58 6 -6 15 -21 18 -32 3
-11 10 -20 15 -20 5 0 12 -9 15 -21 4 -11 9 -18 12 -15 5 4 -37 77 -64 111
-10 12 -43 62 -60 90 -25 42 -47 95 -44 108 1 5 -8 20 -19 34 -11 14 -20 30
-20 36 0 6 -6 18 -13 26 -23 27 -56 117 -62 168 -4 26 -13 62 -22 78 -8 17
-16 52 -18 79 -2 32 -8 52 -19 58 -9 5 -16 15 -16 23 0 7 -6 16 -12 18 -7 3
-1 6 15 6 23 1 27 5 27 31 0 17 -4 30 -10 30 -5 0 -10 11 -10 25 0 22 4 25 36
25 l36 0 -7 65 -7 65 47 0 47 0 -7 43 c-3 23 -9 50 -11 60 -5 16 8 17 166 17
l172 0 -7 60 -7 61 230 -3 231 -3 -6 30 c-4 17 -9 32 -13 35 -4 3 -9 26 -12
53 l-6 47 2467 0 c1596 0 2461 4 2451 10 -8 5 -11 10 -6 10 5 0 41 -21 78 -47
38 -27 77 -52 86 -58 9 -5 48 -31 87 -56 84 -55 101 -65 275 -166 197 -115
201 -117 373 -203 134 -67 240 -116 402 -185 194 -83 789 -304 1094 -407 643
-216 1004 -298 1311 -298 225 0 601 59 804 125 499 163 1034 517 1283 850 57
75 133 211 146 260 4 17 14 44 21 60 8 17 17 46 21 65 4 19 11 40 15 45 5 6
10 21 13 35 4 21 4 20 6 -7 l1 -33 505 0 c304 0 505 -4 505 -9 0 -5 -6 -16
-13 -23 -7 -7 -18 -28 -25 -46 -6 -18 -18 -40 -27 -48 -8 -8 -15 -20 -15 -25
0 -5 109 -9 265 -9 237 0 297 -6 251 -23 -8 -3 -17 -19 -21 -36 -4 -17 -11
-31 -16 -31 -5 0 -9 -7 -9 -15 0 -13 27 -15 181 -15 162 0 180 -2 175 -16 -3
-9 -9 -27 -12 -40 -3 -13 -10 -24 -14 -24 -4 0 -10 -9 -13 -20 -5 -18 0 -20
49 -20 30 0 54 -4 54 -8 0 -8 -8 -19 -49 -68 -5 -6 -12 -20 -15 -32 -7 -20 -4
-22 33 -22 l40 0 -11 -32 c-7 -18 -18 -39 -25 -46 -24 -25 -13 -32 47 -32 36
0 60 -4 60 -11 0 -14 -20 -50 -37 -67 -7 -7 -13 -20 -13 -28 0 -8 -4 -14 -10
-14 -5 0 -10 -4 -10 -10 0 -5 11 -10 25 -10 16 0 25 -6 25 -15 0 -8 -4 -15
-10 -15 -5 0 -12 -11 -16 -24 -3 -14 -12 -27 -20 -30 -21 -8 -17 -36 6 -36 23
0 27 -18 6 -26 -8 -3 -18 -19 -21 -36 -4 -16 -13 -32 -20 -34 -19 -8 -26 -44
-9 -44 19 0 18 -26 -1 -34 -21 -8 -19 -26 3 -27 10 0 12 -3 5 -6 -7 -2 -13
-11 -13 -19 0 -8 -7 -17 -16 -21 -8 -3 -13 -11 -10 -18 3 -8 -2 -16 -10 -19
-9 -3 -14 -12 -11 -19 2 -6 -6 -26 -19 -43 -13 -17 -20 -34 -17 -38 4 -3 1 -6
-5 -6 -7 0 -18 -15 -26 -33 -20 -43 -49 -90 -61 -99 -6 -5 -4 -8 4 -8 11 0 11
-4 -2 -18 -10 -10 -17 -24 -17 -30 0 -7 -5 -12 -10 -12 -6 0 -15 -11 -20 -25
-5 -14 -14 -25 -20 -25 -5 0 -10 -11 -10 -25 0 -14 -7 -28 -15 -31 -8 -4 -15
-12 -15 -20 0 -8 -9 -19 -20 -26 -11 -7 -20 -20 -20 -29 0 -9 -9 -24 -20 -34
-11 -10 -20 -23 -20 -30 0 -6 -11 -22 -25 -35 -14 -13 -25 -29 -25 -37 0 -7
-4 -13 -10 -13 -5 0 -10 -5 -10 -11 0 -7 -8 -19 -18 -28 -11 -9 -25 -27 -32
-41 -16 -31 -46 -71 -84 -112 -16 -18 -35 -43 -42 -56 -6 -13 -36 -48 -65 -79
-30 -31 -54 -59 -54 -63 0 -6 -92 -112 -169 -193 -27 -29 -78 -83 -115 -122
l-66 -70 75 70 c41 39 78 75 81 80 4 6 38 42 76 80 62 63 130 136 232 250 115
129 386 467 474 593 21 29 54 76 74 105 52 73 142 209 198 297 26 41 62 98 80
125 38 59 155 262 155 269 0 2 19 37 43 78 90 152 279 549 373 783 25 61 49
119 54 130 16 35 96 254 143 395 44 132 66 206 107 353 11 39 25 86 29 102 9
30 50 198 76 310 141 612 202 1222 192 1905 -9 562 -51 944 -172 1549 -16 78
-80 346 -95 396 -5 17 -19 66 -31 110 -52 194 -192 610 -249 740 -10 22 -30
72 -45 110 -71 182 -275 614 -381 805 -77 139 -169 298 -212 365 -24 39 -60
95 -80 125 -19 30 -71 109 -115 175 -70 104 -97 143 -159 227 -7 9 -20 26 -28
38 -24 36 -235 304 -264 337 -15 16 -33 38 -41 49 -8 10 -15 16 -15 12 0 -5
35 -52 78 -105 43 -54 89 -114 102 -133 29 -42 40 -56 61 -79 16 -18 30 -46
35 -71 2 -8 11 -20 20 -27 10 -7 14 -13 8 -13 -5 -1 1 -9 13 -19 13 -11 27
-30 33 -42 5 -13 41 -73 79 -134 39 -60 82 -132 97 -160 15 -27 30 -52 34 -55
4 -3 12 -15 18 -27 9 -16 9 -23 -1 -27 -9 -3 -8 -8 3 -18 20 -17 36 -46 76
-133 11 -22 26 -51 34 -64 8 -14 15 -29 15 -35 1 -16 17 -50 26 -56 4 -3 11
-21 14 -40 3 -19 10 -36 16 -38 5 -2 9 -10 9 -17 0 -8 8 -18 17 -24 13 -7 14
-12 6 -23 -14 -17 -10 -107 4 -116 6 -4 15 -20 18 -35 4 -15 11 -27 16 -27 5
0 9 -7 9 -15 0 -10 -10 -15 -27 -15 -16 0 -23 -4 -17 -8 6 -4 15 -18 19 -32 4
-13 14 -30 21 -38 20 -20 17 -42 -6 -42 -17 0 -19 -4 -14 -27 4 -16 10 -30 13
-33 8 -7 31 -58 31 -70 0 -6 -27 -10 -60 -10 -60 0 -71 -7 -47 -32 7 -7 18
-28 25 -45 l11 -33 -41 0 c-39 0 -40 -1 -33 -27 3 -15 10 -30 14 -33 5 -3 11
-15 15 -27 4 -13 12 -23 17 -23 5 0 9 -4 9 -10 0 -6 -28 -10 -62 -10 -35 0
-58 -4 -51 -8 6 -4 15 -20 18 -35 4 -15 11 -27 15 -27 4 0 10 -11 12 -25 l5
-25 -179 0 -178 0 6 -27 c4 -16 10 -30 14 -33 4 -3 10 -15 14 -27 l7 -23 -245
0 c-157 0 -246 -4 -246 -10 0 -5 4 -10 8 -10 4 0 14 -17 21 -37 8 -21 18 -40
22 -43 5 -4 12 -20 15 -38 l6 -32 -3880 -2 -3881 -3 -6 22 c-3 12 -18 50 -34
85 -30 66 -134 311 -266 628 -43 102 -102 244 -132 315 -153 368 -221 483
-336 570 -115 88 -125 90 -542 86 -390 -3 -440 -9 -584 -66 -159 -62 -270
-149 -465 -363 -186 -205 -288 -340 -404 -542 -56 -99 -140 -275 -157 -330 -4
-14 -11 -29 -15 -35 -4 -5 -19 -50 -34 -100 -15 -49 -31 -97 -35 -105 -5 -9
-12 -39 -16 -68 -4 -29 -10 -52 -15 -52 -4 0 -12 -30 -18 -67 -8 -48 -10 -54
-8 -20 l4 47 -717 0 c-394 0 -711 4 -706 8 6 4 17 27 24 52 7 25 17 47 21 50
5 3 12 18 15 33 l7 28 -241 -3 c-199 -2 -240 -1 -236 10 3 8 8 25 11 38 3 13
10 24 15 24 5 0 9 9 9 20 0 19 -7 20 -175 20 l-174 0 6 32 c4 18 12 39 20 46
28 28 15 42 -37 42 -38 0 -50 4 -50 15 0 8 4 15 8 15 5 0 15 18 22 40 7 22 17
40 22 40 4 0 8 5 8 10 0 6 -18 10 -40 10 -22 0 -40 3 -40 7 0 16 25 73 32 73
4 0 8 7 8 15 0 12 -14 15 -67 15 -38 0 -63 4 -57 8 6 4 17 25 24 47 7 22 19
46 27 53 20 20 16 32 -11 32 -24 0 -24 2 -14 33 6 17 14 34 18 37 4 3 10 15
14 28 6 18 4 22 -14 22 -17 0 -20 4 -14 22 3 12 13 28 20 36 8 7 14 20 14 28
0 8 4 14 9 14 5 0 11 9 14 20 4 18 0 20 -35 20 -28 0 -38 4 -34 13 3 6 9 20
12 30 4 9 10 17 15 17 5 0 9 6 9 14 0 8 7 22 16 30 8 9 13 20 9 25 -3 5 -1 12
5 16 16 10 12 25 -7 25 -12 0 -14 3 -6 8 6 4 14 19 18 34 4 15 13 29 20 31 7
3 15 17 19 31 3 14 20 47 36 72 16 25 32 59 35 75 4 16 11 29 17 29 6 0 8 3 5
6 -4 4 3 15 15 25 17 15 18 21 8 34 -7 8 -8 15 -4 15 5 0 15 15 23 33 8 17 18
34 21 37 4 3 18 25 31 49 39 72 47 83 59 91 6 4 12 18 12 31 1 13 12 38 25 56
13 17 23 34 23 38 0 3 4 11 10 18 5 7 25 35 43 62 136 205 213 313 236 331 8
6 11 15 8 20 -3 5 9 25 26 45 18 20 41 48 52 63 11 15 29 38 40 50 97 109 143
166 132 166 -2 0 -14 -12 -27 -27z m3530 -1027 c120 -64 220 -196 302 -401 16
-38 33 -79 38 -90 5 -11 21 -49 35 -85 14 -36 30 -74 35 -85 5 -11 21 -49 35
-85 14 -36 30 -74 35 -85 5 -11 25 -58 44 -105 67 -168 127 -315 136 -335 5
-11 21 -49 35 -85 14 -36 30 -74 35 -85 5 -11 44 -103 86 -205 42 -102 118
-279 168 -395 l91 -210 0 -112 0 -111 -78 -156 c-46 -93 -104 -191 -145 -245
-93 -124 -288 -355 -402 -477 -126 -134 -155 -186 -155 -279 0 -106 26 -159
250 -500 282 -430 550 -762 889 -1100 518 -517 1135 -942 1786 -1232 25 -11
68 -31 95 -43 330 -149 389 -170 470 -170 84 0 140 25 217 98 115 108 542 625
736 889 145 199 196 237 322 237 61 0 97 -7 190 -38 63 -21 120 -42 125 -46 6
-4 21 -11 34 -15 26 -8 103 -43 481 -223 197 -93 325 -154 585 -282 593 -290
780 -385 825 -421 75 -59 93 -107 98 -263 4 -139 -8 -296 -34 -430 -41 -212
-111 -459 -160 -563 -122 -258 -410 -523 -824 -760 -102 -59 -312 -163 -327
-163 -5 0 -20 -7 -36 -15 -83 -43 -310 -108 -459 -131 -51 -8 -118 -19 -148
-24 -30 -5 -125 -14 -210 -20 -132 -10 -179 -9 -315 5 -88 9 -166 20 -175 25
-8 4 -37 11 -65 15 -27 3 -93 18 -145 32 -52 14 -118 31 -146 38 -27 7 -66 17
-85 23 -18 6 -74 23 -124 38 -49 14 -99 30 -110 34 -11 5 -60 21 -110 36 -49
15 -94 30 -100 34 -5 4 -28 12 -50 18 -22 6 -92 29 -155 52 -63 23 -131 46
-150 52 -19 6 -39 14 -45 18 -5 4 -26 13 -45 18 -43 13 -213 77 -257 97 -17 8
-38 15 -46 15 -9 0 -18 4 -21 9 -3 5 -18 12 -32 15 -27 7 -181 66 -239 92 -16
7 -59 25 -95 39 -98 39 -120 50 -320 148 -782 385 -1529 952 -2249 1707 -450
472 -735 824 -1171 1445 -293 417 -395 570 -496 745 -518 895 -688 1675 -533
2445 24 121 70 290 98 360 5 11 19 47 31 80 52 136 175 366 265 495 76 110
225 288 345 413 122 127 247 223 321 249 19 6 39 14 44 19 13 9 117 39 175 49
25 4 207 7 405 6 331 -1 363 -2 395 -20z"/>
<path d="M3116 3593 c-4 -24 -11 -43 -16 -43 -4 0 -11 -17 -15 -37 -4 -21 -10
-42 -14 -48 -4 -5 -13 -30 -20 -55 -6 -25 -16 -54 -21 -65 -5 -11 -27 -76 -50
-145 -23 -69 -44 -132 -47 -140 -24 -63 -91 -265 -89 -268 3 -3 230 70 271 88
11 4 61 20 110 35 50 14 97 30 106 35 9 5 33 12 53 15 20 4 36 11 36 15 0 4
19 12 43 18 l42 11 -45 -6 c-82 -10 -229 -6 -245 7 -8 7 -25 10 -38 6 -19 -4
-31 2 -56 31 -25 28 -29 38 -19 45 10 6 9 12 -7 24 -20 15 -28 44 -27 94 1 14
2 58 2 97 1 40 5 75 9 78 4 2 9 26 10 52 1 26 11 75 22 110 12 34 19 67 17 75
-3 7 -8 -6 -12 -29z"/>
</g>
</svg>
